#!OML:ASF F:\VICON\USERDATA\INSTALL\rory3\rory3.ASF
:FULLY-SPECIFIED
:DEGREES
610
root 0.800005 15.8223 42.8747 -2.08159 -1.11144 5.03201
lowerback 12.4939 0.894341 -8.1609
upperback -4.92892 -0.24495 -0.047421
thorax -12.508 0.539921 4.61658
lowerneck -10.479 -6.35441 -5.36696
upperneck 21.7908 -8.7482 3.85742
head 8.95335 -4.17771 1.23159
rclavicle 6.48535e-015 1.45113e-014
rhumerus -49.8218 -10.9595 -74.9567
rradius 14.1827
rwrist 25.4861
rhand -7.46153 20.7854
rfingers 7.12502
rthumb 18.4269 -8.36184
lclavicle 6.48535e-015 1.45113e-014
lhumerus -38.7534 6.52889 81.8966
lradius 18.8667
lwrist -4.91722
lhand -5.19014 18.7493
lfingers 7.12502
lthumb 20.6107 47.6751
rfemur -14.2029 -2.93833 13.88
rtibia 71.9644
rfoot 16.75 -9.58156
rtoes 33.8838
lfemur -15.1861 -11.4081 -30.8998
ltibia 31.7004
lfoot -9.91058 5.91437
ltoes 22.5003
611
root 0.812456 15.8251 42.9642 -2.15992 -1.14336 4.93237
lowerback 12.6706 0.801949 -8.07964
upperback -4.90412 -0.365461 -0.000999822
thorax -12.5673 0.481024 4.65194
lowerneck -10.5358 -6.35151 -5.34885
upperneck 21.8315 -8.7448 3.84303
head 8.97615 -4.17512 1.22191
rclavicle 1.49089e-015 -9.74045e-015
rhumerus -49.8186 -10.3605 -75.6704
rradius 14.6829
rwrist 24.2688
rhand -7.49122 20.5845
rfingers 7.12502
rthumb 18.3983 -8.56544
lclavicle 1.49089e-015 -9.74045e-015
lhumerus -38.5516 6.49603 81.8976
lradius 18.7464
lwrist -5.10793
lhand -5.1274 18.7751
lfingers 7.12502
lthumb 20.671 47.6943
rfemur -15.3192 -2.97343 14.1152
rtibia 73.0159
rfoot 14.8537 -8.64941
rtoes 32.8494
lfemur -14.698 -11.4327 -30.9273
ltibia 31.6531
lfoot -10.5527 5.96358
ltoes 21.4908
612
root 0.819579 15.825 43.0601 -2.28244 -1.21765 5.0248
lowerback 12.7613 0.753753 -8.27489
upperback -4.88309 -0.47027 0.0251514
thorax -12.5852 0.449157 4.81703
lowerneck -10.3465 -6.37894 -5.47745
upperneck 21.7649 -8.77598 3.88857
head 8.92836 -4.20001 1.26105
rclavicle -2.72583e-014 -4.57205e-015
rhumerus -49.9086 -9.75378 -76.2501
rradius 15.1315
rwrist 23.0537
rhand -7.56585 20.5817
rfingers 7.12502
rthumb 18.3265 -8.57503
lclavicle -2.72583e-014 -4.57205e-015
lhumerus -38.4379 6.44752 81.9548
lradius 18.6648
lwrist -5.2436
lhand -5.2199 18.7166
lfingers 7.12502
lthumb 20.5821 47.6455
rfemur -16.3177 -3.11236 14.111
rtibia 73.9232
rfoot 12.6374 -7.25675
rtoes 30.893
lfemur -14.2024 -11.4223 -31.1513
ltibia 31.7061
lfoot -11.0154 5.85314
ltoes 22.5147
613
root 0.831394 15.8179 43.1497 -2.31541 -1.11468 5.30519
lowerback 12.8084 0.626203 -8.59656
upperback -4.86449 -0.708612 -0.0155222
thorax -12.5594 0.359205 5.00967
lowerneck -10.0207 -6.33073 -5.48134
upperneck 21.6129 -8.7192 3.89766
head 8.81352 -4.18051 1.28367
rclavicle -1.57288e-014 -2.78299e-015
rhumerus -49.8749 -9.57963 -76.4781
rradius 15.4254
rwrist 22.4731
rhand -7.80637 20.8023
rfingers 7.12502
rthumb 18.0951 -8.37599
lclavicle -1.57288e-014 -2.78299e-015
lhumerus -38.2218 6.59867 81.8951
lradius 18.5744
lwrist -5.49587
lhand -5.5684 18.3615
lfingers 7.12502
lthumb 20.2472 47.3262
rfemur -17.3987 -3.57185 13.7812
rtibia 74.7627
rfoot 10.3225 -5.54484
rtoes 27.569
lfemur -13.7219 -11.506 -31.6389
ltibia 31.6495
lfoot -10.9789 5.90028
ltoes 22.6358
614
root 0.825502 15.8212 43.2394 -2.52629 -1.41258 4.62207
lowerback 12.9595 0.585207 -8.30228
upperback -4.70314 -0.680761 0.296888
thorax -12.4622 0.356006 5.18716
lowerneck -10.2534 -6.29884 -5.37822
upperneck 21.6846 -8.67346 3.83864
head 8.87083 -4.15208 1.24425
rclavicle 9.29318e-015 4.37326e-015
rhumerus -49.6071 -9.2247 -76.9283
rradius 15.7709
rwrist 21.5663
rhand -8.38479 21.583
rfingers 7.12502
rthumb 17.5386 -7.64589
lclavicle 9.29318e-015 4.37326e-015
lhumerus -37.7252 6.75342 81.9205
lradius 18.4145
lwrist -5.7301
lhand -5.50808 18.2317
lfingers 7.12502
lthumb 20.3052 47.1902
rfemur -18.3427 -3.1248 15.0049
rtibia 75.2101
rfoot 7.98848 -4.81432
rtoes 24.2594
lfemur -13.1183 -11.2454 -30.9524
ltibia 31.6041
lfoot -11.2721 5.98909
ltoes 21.5893
615
root 0.844059 15.826 43.3274 -2.47177 -1.36474 4.69713
lowerback 12.8675 0.46188 -8.30995
upperback -4.64204 -0.835498 0.301438
thorax -12.311 0.274904 5.23
lowerneck -10.2838 -6.30309 -5.46853
upperneck 21.6632 -8.68071 3.928
head 8.8781 -4.15345 1.28709
rclavicle 1.95803e-014 -2.98177e-015
rhumerus -49.3849 -8.71942 -77.5215
rradius 16.1819
rwrist 20.3012
rhand -8.84294 22.1857
rfingers 7.12502
rthumb 17.0976 -7.08201
lclavicle 1.95803e-014 -2.98177e-015
lhumerus -37.2554 6.74209 82.0408
lradius 18.3179
lwrist -5.90288
lhand -5.31715 18.4635
lfingers 7.12502
lthumb 20.4887 47.4024
rfemur -19.412 -3.18873 14.9773
rtibia 75.4733
rfoot 5.96409 -3.89341
rtoes 22.1546
lfemur -12.6953 -11.4051 -31.2034
ltibia 31.5233
lfoot -11.7932 6.03846
ltoes 21.1097
616
root 0.862574 15.827 43.4189 -2.41652 -1.27684 4.95371
lowerback 12.7691 0.36291 -8.40617
upperback -4.62144 -0.985966 0.207014
thorax -12.2053 0.200852 5.21121
lowerneck -10.2335 -6.37014 -5.54915
upperneck 21.6381 -8.77004 3.96566
head 8.87074 -4.19943 1.30395
rclavicle -4.37326e-015 -1.05356e-014
rhumerus -49.2863 -8.20518 -78.1523
rradius 16.677
rwrist 18.8995
rhand -8.76822 22.0363
rfingers 7.12502
rthumb 17.1695 -7.22508
lclavicle -4.37326e-015 -1.05356e-014
lhumerus -36.9627 6.79902 82.0525
lradius 18.3505
lwrist -6.08735
lhand -5.42488 18.5359
lfingers 7.12502
lthumb 20.3851 47.4859
rfemur -20.3652 -3.37441 14.6679
rtibia 75.5346
rfoot 4.11298 -3.25019
rtoes 21.153
lfemur -12.2728 -11.6119 -31.6894
ltibia 31.4468
lfoot -12.1168 6.23697
ltoes 20.0382
617
root 0.871208 15.8259 43.5053 -2.41724 -1.26312 4.90234
lowerback 12.8202 0.268637 -8.35149
upperback -4.58641 -1.10369 0.229141
thorax -12.1765 0.139753 5.23227
lowerneck -10.4 -6.40942 -5.53868
upperneck 21.8118 -8.81737 3.91591
head 8.96096 -4.22163 1.27268
rclavicle -1.23495e-014 -6.55989e-015
rhumerus -49.1414 -8.0227 -78.4977
rradius 17.1455
rwrist 18.0224
rhand -8.54003 21.6699
rfingers 7.12502
rthumb 17.3892 -7.57229
lclavicle -1.23495e-014 -6.55989e-015
lhumerus -36.568 6.88713 82.0542
lradius 18.2098
lwrist -6.23683
lhand -5.60261 18.5754
lfingers 7.12502
lthumb 20.2143 47.5436
rfemur -21.2484 -3.38502 14.8374
rtibia 75.4248
rfoot 2.43774 -3.06317
rtoes 21.684
lfemur -11.8153 -11.7595 -31.7605
ltibia 31.2703
lfoot -12.4164 6.2779
ltoes 20.6905
